<?xml version="1.0" standalone="no"?><!DOCTYPE svg PUBLIC "-//W3C//DTD SVG 1.1//EN" "http://www.w3.org/Graphics/SVG/1.1/DTD/svg11.dtd"><svg t="1769141306207" class="icon" viewBox="0 0 1024 1024" version="1.1" xmlns="http://www.w3.org/2000/svg" p-id="3741" xmlns:xlink="http://www.w3.org/1999/xlink" width="200" height="200"><path d="M864 128a64 64 0 0 1 64 64v128a64 64 0 0 1-64 64v448a64 64 0 0 1-64 64h-576a64 64 0 0 1-64-64V384a64 64 0 0 1-64-64V192a64 64 0 0 1 64-64h704z m-64 256h-576v432c0 8.832 7.168 16 16 16h544a16 16 0 0 0 16-16V384zM624 512a16 16 0 0 1 16 16v32a16 16 0 0 1-16 16h-224A16 16 0 0 1 384 560v-32A16 16 0 0 1 400 512h224z m224-320H176a16 16 0 0 0-16 16v96a16 16 0 0 0 16 16h672a16 16 0 0 0 16-16v-96a15.936 15.936 0 0 0-16-16z" p-id="3742" fill="currentColor"></path></svg>