<?xml version="1.0" standalone="no"?><!DOCTYPE svg PUBLIC "-//W3C//DTD SVG 1.1//EN" "http://www.w3.org/Graphics/SVG/1.1/DTD/svg11.dtd"><svg t="1770014449019" class="icon" viewBox="0 0 1025 1024" version="1.1" xmlns="http://www.w3.org/2000/svg" p-id="10726" xmlns:xlink="http://www.w3.org/1999/xlink" width="200.1953125" height="200"><path d="M72.92705 513.486c35.306 35.014 70.058 69.445 104.78 103.905 44.879 44.546 159.969 160.476 204.678 205.191 18.087 18.087 12.252 46.119-10.909 53.417-12.579 3.963-23.726 1.017-33.189-8.399-47.852-47.596-165.894-166.603-213.801-214.15-36.329-36.059-72.649-72.124-109.029-108.134-20.034-19.829-20.699-43.479-1.375-62.681 84.729-84.182 247.64-250.571 332.343-334.777 9.376-9.323 20.331-12.9 33.003-9.393 11.859 3.283 19.394 11.455 22.042 23.422 2.646 11.964-1.275 22.037-9.941 30.625-54.17 53.71-186.378 189.773-240.513 243.515-25.811 25.631-51.648 51.235-78.089 77.459z" p-id="10727"></path><path d="M228.49405 494.985c-6.302 5.93-8.986 13.794-8.563 21.55-0.423 7.778 2.261 15.643 8.563 21.572l296.278 307.961c5.479 6.298 13.448 10.563 22.735 10.563 8.439 0 15.988-3.381 21.418-8.708 0.079-0.077 0.178-0.089 0.256-0.186 6.803-6.372 9.213-15.009 8.186-23.361 0 0 0.518-156.755 0.518-166.401 196.831 0 374.877 134.32 410.21 311.168 23.793-51.847 37.157-108.975 37.157-169.118 0-234.468-200.524-424.569-447.885-424.569V208.718c1.027-8.357-1.383-16.975-8.186-23.381-11.812-11.108-30.961-11.108-42.775 0L228.49405 494.985z m292.08 258.956L292.18705 516.553l228.387-237.384v152.896s74.543-0.736 90.061-0.277c210.617 6.209 356.896 233.551 357.823 339.928-64.339-78.313-233.434-170.298-357.821-170.298-19.524 0-90.062 0.49-90.062 0.49v152.033h-0.001z" p-id="10728"></path></svg>