<?xml version="1.0" standalone="no"?><!DOCTYPE svg PUBLIC "-//W3C//DTD SVG 1.1//EN" "http://www.w3.org/Graphics/SVG/1.1/DTD/svg11.dtd"><svg t="1769460084874" class="icon" viewBox="0 0 1024 1024" version="1.1" xmlns="http://www.w3.org/2000/svg" p-id="1199" xmlns:xlink="http://www.w3.org/1999/xlink" width="200" height="200"><path d="M483.555556 819.2c17.066667-11.377778 34.133333-11.377778 51.2 0l250.311111 130.844444-45.511111-278.755555c-5.688889-17.066667 5.688889-39.822222 17.066666-51.2l199.111111-199.111111-278.755555-39.822222c-17.066667 0-34.133333-17.066667-45.511111-28.444445L512 102.4 386.844444 352.711111c-5.688889 17.066667-22.755556 28.444444-39.822222 28.444445l-278.755555 45.511111L267.377778 625.777778c11.377778 5.688889 17.066667 28.444444 17.066666 45.511111l-45.511111 278.755555 244.622223-130.844444z m28.444444 45.511111l-250.311111 130.844445c-28.444444 17.066667-62.577778 5.688889-79.644445-22.755556-5.688889-11.377778-5.688889-22.755556-5.688888-34.133333l51.2-278.755556L28.444444 466.488889c-22.755556-22.755556-22.755556-56.888889 0-79.644445 5.688889-11.377778 17.066667-17.066667 28.444445-17.066666l278.755555-39.822222 125.155556-250.311112c11.377778-28.444444 45.511111-39.822222 73.955556-28.444444 11.377778 5.688889 22.755556 17.066667 28.444444 28.444444l125.155556 250.311112 278.755555 39.822222c28.444444 5.688889 51.2 34.133333 45.511111 62.577778 0 11.377778-5.688889 22.755556-17.066666 34.133333L796.444444 659.911111l45.511112 278.755556c5.688889 28.444444-17.066667 62.577778-45.511112 68.266666-11.377778 0-22.755556 0-34.133333-5.688889L512 864.711111z" fill="#98A1A8" p-id="1200"></path></svg>